<?xml version="1.0" encoding="UTF-8" standalone="no"?><svg xmlns="http://www.w3.org/2000/svg" xmlns:xlink="http://www.w3.org/1999/xlink" contentScriptType="application/ecmascript" contentStyleType="text/css" height="2719px" preserveAspectRatio="none" style="width:1191px;height:2719px;" version="1.1" viewBox="0 0 1191 2719" width="1191px" zoomAndPan="magnify"><defs><filter height="300%" id="f1dhuri47dnb7f" width="300%" x="-1" y="-1"><feGaussianBlur result="blurOut" stdDeviation="2.0"/><feColorMatrix in="blurOut" result="blurOut2" type="matrix" values="0 0 0 0 0 0 0 0 0 0 0 0 0 0 0 0 0 0 .4 0"/><feOffset dx="4.0" dy="4.0" in="blurOut2" result="blurOut3"/><feBlend in="SourceGraphic" in2="blurOut3" mode="normal"/></filter></defs><g><rect fill="#FFFFFF" filter="url(#f1dhuri47dnb7f)" height="1090.6484" style="stroke: #A80036; stroke-width: 1.0;" width="10" x="533" y="1428.6094"/><rect fill="#FFFFFF" filter="url(#f1dhuri47dnb7f)" height="469.9922" style="stroke: #A80036; stroke-width: 1.0;" width="10" x="815" y="1921.7344"/><rect fill="#FFFFFF" filter="url(#f1dhuri47dnb7f)" height="469.9922" style="stroke: #A80036; stroke-width: 1.0;" width="10" x="1000" y="1921.7344"/><line style="stroke: #A80036; stroke-width: 1.0; stroke-dasharray: 5.0,5.0;" x1="82" x2="82" y1="86.2969" y2="2631.7891"/><line style="stroke: #A80036; stroke-width: 1.0; stroke-dasharray: 5.0,5.0;" x1="268.5" x2="268.5" y1="86.2969" y2="2631.7891"/><line style="stroke: #A80036; stroke-width: 1.0; stroke-dasharray: 5.0,5.0;" x1="454" x2="454" y1="86.2969" y2="2631.7891"/><line style="stroke: #A80036; stroke-width: 1.0; stroke-dasharray: 5.0,5.0;" x1="538" x2="538" y1="86.2969" y2="2631.7891"/><line style="stroke: #A80036; stroke-width: 1.0; stroke-dasharray: 5.0,5.0;" x1="820" x2="820" y1="86.2969" y2="2631.7891"/><line style="stroke: #A80036; stroke-width: 1.0; stroke-dasharray: 5.0,5.0;" x1="1004.5" x2="1004.5" y1="86.2969" y2="2631.7891"/><line style="stroke: #A80036; stroke-width: 1.0; stroke-dasharray: 5.0,5.0;" x1="1143" x2="1143" y1="86.2969" y2="2631.7891"/><text fill="#000000" font-family="sans-serif" font-size="14" lengthAdjust="spacingAndGlyphs" textLength="40" x="59" y="82.9951">Buyer</text><ellipse cx="82" cy="13" fill="#FEFECE" filter="url(#f1dhuri47dnb7f)" rx="8" ry="8" style="stroke: #A80036; stroke-width: 2.0;"/><path d="M82,21 L82,48 M69,29 L95,29 M82,48 L69,63 M82,48 L95,63 " fill="#FEFECE" filter="url(#f1dhuri47dnb7f)" style="stroke: #A80036; stroke-width: 2.0;"/><text fill="#000000" font-family="sans-serif" font-size="14" lengthAdjust="spacingAndGlyphs" textLength="40" x="59" y="2643.7842">Buyer</text><ellipse cx="82" cy="2657.0859" fill="#FEFECE" filter="url(#f1dhuri47dnb7f)" rx="8" ry="8" style="stroke: #A80036; stroke-width: 2.0;"/><path d="M82,2665.0859 L82,2692.0859 M69,2673.0859 L95,2673.0859 M82,2692.0859 L69,2707.0859 M82,2692.0859 L95,2707.0859 " fill="#FEFECE" filter="url(#f1dhuri47dnb7f)" style="stroke: #A80036; stroke-width: 2.0;"/><rect fill="#FEFECE" filter="url(#f1dhuri47dnb7f)" height="30.2969" style="stroke: #A80036; stroke-width: 1.5;" width="53" x="240.5" y="51"/><text fill="#000000" font-family="sans-serif" font-size="14" lengthAdjust="spacingAndGlyphs" textLength="39" x="247.5" y="70.9951">Client</text><rect fill="#FEFECE" filter="url(#f1dhuri47dnb7f)" height="30.2969" style="stroke: #A80036; stroke-width: 1.5;" width="53" x="240.5" y="2630.7891"/><text fill="#000000" font-family="sans-serif" font-size="14" lengthAdjust="spacingAndGlyphs" textLength="39" x="247.5" y="2650.7842">Client</text><rect fill="#FEFECE" filter="url(#f1dhuri47dnb7f)" height="30.2969" style="stroke: #A80036; stroke-width: 1.5;" width="98" x="403" y="51"/><text fill="#000000" font-family="sans-serif" font-size="14" lengthAdjust="spacingAndGlyphs" textLength="84" x="410" y="70.9951">Marketplace</text><rect fill="#FEFECE" filter="url(#f1dhuri47dnb7f)" height="30.2969" style="stroke: #A80036; stroke-width: 1.5;" width="98" x="403" y="2630.7891"/><text fill="#000000" font-family="sans-serif" font-size="14" lengthAdjust="spacingAndGlyphs" textLength="84" x="410" y="2650.7842">Marketplace</text><rect fill="#FEFECE" filter="url(#f1dhuri47dnb7f)" height="30.2969" style="stroke: #A80036; stroke-width: 1.5;" width="42" x="515" y="51"/><text fill="#000000" font-family="sans-serif" font-size="14" lengthAdjust="spacingAndGlyphs" textLength="28" x="522" y="70.9951">ETH</text><rect fill="#FEFECE" filter="url(#f1dhuri47dnb7f)" height="30.2969" style="stroke: #A80036; stroke-width: 1.5;" width="42" x="515" y="2630.7891"/><text fill="#000000" font-family="sans-serif" font-size="14" lengthAdjust="spacingAndGlyphs" textLength="28" x="522" y="2650.7842">ETH</text><rect fill="#FEFECE" filter="url(#f1dhuri47dnb7f)" height="30.2969" style="stroke: #A80036; stroke-width: 1.5;" width="42" x="797" y="51"/><text fill="#000000" font-family="sans-serif" font-size="14" lengthAdjust="spacingAndGlyphs" textLength="28" x="804" y="70.9951">Hub</text><rect fill="#FEFECE" filter="url(#f1dhuri47dnb7f)" height="30.2969" style="stroke: #A80036; stroke-width: 1.5;" width="42" x="797" y="2630.7891"/><text fill="#000000" font-family="sans-serif" font-size="14" lengthAdjust="spacingAndGlyphs" textLength="28" x="804" y="2650.7842">Hub</text><rect fill="#FEFECE" filter="url(#f1dhuri47dnb7f)" height="30.2969" style="stroke: #A80036; stroke-width: 1.5;" width="63" x="971.5" y="51"/><text fill="#000000" font-family="sans-serif" font-size="14" lengthAdjust="spacingAndGlyphs" textLength="49" x="978.5" y="70.9951">Worker</text><rect fill="#FEFECE" filter="url(#f1dhuri47dnb7f)" height="30.2969" style="stroke: #A80036; stroke-width: 1.5;" width="63" x="971.5" y="2630.7891"/><text fill="#000000" font-family="sans-serif" font-size="14" lengthAdjust="spacingAndGlyphs" textLength="49" x="978.5" y="2650.7842">Worker</text><text fill="#000000" font-family="sans-serif" font-size="14" lengthAdjust="spacingAndGlyphs" textLength="56" x="1112" y="82.9951">Supplier</text><ellipse cx="1143" cy="13" fill="#FEFECE" filter="url(#f1dhuri47dnb7f)" rx="8" ry="8" style="stroke: #A80036; stroke-width: 2.0;"/><path d="M1143,21 L1143,48 M1130,29 L1156,29 M1143,48 L1130,63 M1143,48 L1156,63 " fill="#FEFECE" filter="url(#f1dhuri47dnb7f)" style="stroke: #A80036; stroke-width: 2.0;"/><text fill="#000000" font-family="sans-serif" font-size="14" lengthAdjust="spacingAndGlyphs" textLength="56" x="1112" y="2643.7842">Supplier</text><ellipse cx="1143" cy="2657.0859" fill="#FEFECE" filter="url(#f1dhuri47dnb7f)" rx="8" ry="8" style="stroke: #A80036; stroke-width: 2.0;"/><path d="M1143,2665.0859 L1143,2692.0859 M1130,2673.0859 L1156,2673.0859 M1143,2692.0859 L1130,2707.0859 M1143,2692.0859 L1156,2707.0859 " fill="#FEFECE" filter="url(#f1dhuri47dnb7f)" style="stroke: #A80036; stroke-width: 2.0;"/><rect fill="#FFFFFF" filter="url(#f1dhuri47dnb7f)" height="1090.6484" style="stroke: #A80036; stroke-width: 1.0;" width="10" x="533" y="1428.6094"/><rect fill="#FFFFFF" filter="url(#f1dhuri47dnb7f)" height="469.9922" style="stroke: #A80036; stroke-width: 1.0;" width="10" x="815" y="1921.7344"/><rect fill="#FFFFFF" filter="url(#f1dhuri47dnb7f)" height="469.9922" style="stroke: #A80036; stroke-width: 1.0;" width="10" x="1000" y="1921.7344"/><rect fill="#EEEEEE" filter="url(#f1dhuri47dnb7f)" height="3" style="stroke: #EEEEEE; stroke-width: 1.0;" width="1176" x="3" y="116.8633"/><line style="stroke: #000000; stroke-width: 1.0;" x1="3" x2="1179" y1="116.8633" y2="116.8633"/><line style="stroke: #000000; stroke-width: 1.0;" x1="3" x2="1179" y1="119.8633" y2="119.8633"/><rect fill="#EEEEEE" filter="url(#f1dhuri47dnb7f)" height="23.1328" style="stroke: #000000; stroke-width: 2.0;" width="89" x="546.5" y="106.2969"/><text fill="#000000" font-family="sans-serif" font-size="13" font-weight="bold" lengthAdjust="spacingAndGlyphs" textLength="70" x="552.5" y="122.3638">Hub start</text><polygon fill="#A80036" points="831,156.4297,821,160.4297,831,164.4297,827,160.4297" style="stroke: #A80036; stroke-width: 1.0;"/><line style="stroke: #A80036; stroke-width: 1.0;" x1="825" x2="1142" y1="160.4297" y2="160.4297"/><text fill="#000000" font-family="sans-serif" font-size="13" lengthAdjust="spacingAndGlyphs" textLength="96" x="837" y="155.4966">Start hub node</text><polygon fill="#A80036" points="1016,185.5625,1006,189.5625,1016,193.5625,1012,189.5625" style="stroke: #A80036; stroke-width: 1.0;"/><line style="stroke: #A80036; stroke-width: 1.0;" x1="1010" x2="1142" y1="189.5625" y2="189.5625"/><text fill="#000000" font-family="sans-serif" font-size="13" lengthAdjust="spacingAndGlyphs" textLength="114" x="1022" y="184.6294">Start worker node</text><polygon fill="#A80036" points="831,227.2617,821,231.2617,831,235.2617,827,231.2617" style="stroke: #A80036; stroke-width: 1.0;"/><line style="stroke: #A80036; stroke-width: 1.0;" x1="825" x2="1004" y1="231.2617" y2="231.2617"/><text fill="#000000" font-family="sans-serif" font-size="13" lengthAdjust="spacingAndGlyphs" textLength="53" x="837" y="226.3286">Connect</text><polygon fill="#FBFB77" filter="url(#f1dhuri47dnb7f)" points="587,202.6953,587,242.6953,811,242.6953,811,212.6953,801,202.6953,587,202.6953" style="stroke: #A80036; stroke-width: 1.0;"/><line style="stroke: #A80036; stroke-width: 1.0;" x1="801" x2="801" y1="202.6953" y2="212.6953"/><line style="stroke: #A80036; stroke-width: 1.0;" x1="811" x2="801" y1="212.6953" y2="212.6953"/><text fill="#000000" font-family="sans-serif" font-size="13" lengthAdjust="spacingAndGlyphs" textLength="203" x="593" y="219.7622">Hub reports available resources</text><text fill="#000000" font-family="sans-serif" font-size="13" lengthAdjust="spacingAndGlyphs" textLength="99" x="593" y="234.895">and capabilities</text><line style="stroke: #A80036; stroke-width: 1.0;" x1="820" x2="862" y1="273.0938" y2="273.0938"/><line style="stroke: #A80036; stroke-width: 1.0;" x1="862" x2="862" y1="273.0938" y2="286.0938"/><line style="stroke: #A80036; stroke-width: 1.0;" x1="821" x2="862" y1="286.0938" y2="286.0938"/><polygon fill="#A80036" points="831,282.0938,821,286.0938,831,290.0938,827,286.0938" style="stroke: #A80036; stroke-width: 1.0;"/><text fill="#000000" font-family="sans-serif" font-size="13" lengthAdjust="spacingAndGlyphs" textLength="171" x="827" y="268.0278">Check Worker (by address)</text><polygon fill="#A80036" points="831,311.0938,821,315.0938,831,319.0938,827,315.0938" style="stroke: #A80036; stroke-width: 1.0;"/><line style="stroke: #A80036; stroke-width: 1.0;" x1="825" x2="1142" y1="315.0938" y2="315.0938"/><text fill="#000000" font-family="sans-serif" font-size="13" lengthAdjust="spacingAndGlyphs" textLength="137" x="837" y="310.1606">Set worker properties</text><rect fill="#EEEEEE" filter="url(#f1dhuri47dnb7f)" height="3" style="stroke: #EEEEEE; stroke-width: 1.0;" width="1176" x="3" y="343.793"/><line style="stroke: #000000; stroke-width: 1.0;" x1="3" x2="1179" y1="343.793" y2="343.793"/><line style="stroke: #000000; stroke-width: 1.0;" x1="3" x2="1179" y1="346.793" y2="346.793"/><rect fill="#EEEEEE" filter="url(#f1dhuri47dnb7f)" height="23.1328" style="stroke: #000000; stroke-width: 2.0;" width="204" x="489" y="333.2266"/><text fill="#000000" font-family="sans-serif" font-size="13" font-weight="bold" lengthAdjust="spacingAndGlyphs" textLength="185" x="495" y="349.2935">Supplier watches market</text><polygon fill="#A80036" points="831,383.3594,821,387.3594,831,391.3594,827,387.3594" style="stroke: #A80036; stroke-width: 1.0;"/><line style="stroke: #A80036; stroke-width: 1.0;" x1="825" x2="1142" y1="387.3594" y2="387.3594"/><text fill="#000000" font-family="sans-serif" font-size="13" lengthAdjust="spacingAndGlyphs" textLength="221" x="837" y="382.4263">Get market prices for selected slot</text><polygon fill="#A80036" points="465,412.4922,455,416.4922,465,420.4922,461,416.4922" style="stroke: #A80036; stroke-width: 1.0;"/><line style="stroke: #A80036; stroke-width: 1.0;" x1="459" x2="819" y1="416.4922" y2="416.4922"/><text fill="#000000" font-family="sans-serif" font-size="13" lengthAdjust="spacingAndGlyphs" textLength="169" x="471" y="411.5591">Get BIDs and ASKs for slot</text><polygon fill="#A80036" points="808,441.625,818,445.625,808,449.625,812,445.625" style="stroke: #A80036; stroke-width: 1.0;"/><line style="stroke: #A80036; stroke-width: 1.0; stroke-dasharray: 2.0,2.0;" x1="454" x2="814" y1="445.625" y2="445.625"/><text fill="#000000" font-family="sans-serif" font-size="13" lengthAdjust="spacingAndGlyphs" textLength="94" x="461" y="440.6919">BIDs and ASKs</text><polygon fill="#A80036" points="1131,470.7578,1141,474.7578,1131,478.7578,1135,474.7578" style="stroke: #A80036; stroke-width: 1.0;"/><line style="stroke: #A80036; stroke-width: 1.0; stroke-dasharray: 2.0,2.0;" x1="820" x2="1137" y1="474.7578" y2="474.7578"/><text fill="#000000" font-family="sans-serif" font-size="13" lengthAdjust="spacingAndGlyphs" textLength="134" x="827" y="469.8247">Market prices for slot</text><rect fill="#EEEEEE" filter="url(#f1dhuri47dnb7f)" height="3" style="stroke: #EEEEEE; stroke-width: 1.0;" width="1176" x="3" y="503.457"/><line style="stroke: #000000; stroke-width: 1.0;" x1="3" x2="1179" y1="503.457" y2="503.457"/><line style="stroke: #000000; stroke-width: 1.0;" x1="3" x2="1179" y1="506.457" y2="506.457"/><rect fill="#EEEEEE" filter="url(#f1dhuri47dnb7f)" height="23.1328" style="stroke: #000000; stroke-width: 2.0;" width="176" x="503" y="492.8906"/><text fill="#000000" font-family="sans-serif" font-size="13" font-weight="bold" lengthAdjust="spacingAndGlyphs" textLength="157" x="509" y="508.9575">ASK order placement</text><polygon fill="#A80036" points="831,543.0234,821,547.0234,831,551.0234,827,547.0234" style="stroke: #A80036; stroke-width: 1.0;"/><line style="stroke: #A80036; stroke-width: 1.0;" x1="825" x2="1142" y1="547.0234" y2="547.0234"/><text fill="#000000" font-family="sans-serif" font-size="13" lengthAdjust="spacingAndGlyphs" textLength="156" x="837" y="542.0903">View available resources</text><polygon fill="#A80036" points="1131,572.1563,1141,576.1563,1131,580.1563,1135,576.1563" style="stroke: #A80036; stroke-width: 1.0;"/><line style="stroke: #A80036; stroke-width: 1.0; stroke-dasharray: 2.0,2.0;" x1="820" x2="1137" y1="576.1563" y2="576.1563"/><text fill="#000000" font-family="sans-serif" font-size="13" lengthAdjust="spacingAndGlyphs" textLength="93" x="827" y="571.2231">Resources info</text><polygon fill="#A80036" points="831,606.2891,821,610.2891,831,614.2891,827,610.2891" style="stroke: #A80036; stroke-width: 1.0;"/><line style="stroke: #A80036; stroke-width: 1.0;" x1="825" x2="1142" y1="610.2891" y2="610.2891"/><text fill="#000000" font-family="sans-serif" font-size="13" lengthAdjust="spacingAndGlyphs" textLength="167" x="837" y="605.356">Setup resource properties</text><polygon fill="#FBFB77" filter="url(#f1dhuri47dnb7f)" points="503,589.2891,503,614.2891,811,614.2891,811,599.2891,801,589.2891,503,589.2891" style="stroke: #A80036; stroke-width: 1.0;"/><line style="stroke: #A80036; stroke-width: 1.0;" x1="801" x2="801" y1="589.2891" y2="599.2891"/><line style="stroke: #A80036; stroke-width: 1.0;" x1="811" x2="801" y1="599.2891" y2="599.2891"/><text fill="#000000" font-family="sans-serif" font-size="13" lengthAdjust="spacingAndGlyphs" textLength="287" x="509" y="606.356">Associate properties with resource metadata</text><polygon fill="#A80036" points="831,640.4219,821,644.4219,831,648.4219,827,644.4219" style="stroke: #A80036; stroke-width: 1.0;"/><line style="stroke: #A80036; stroke-width: 1.0;" x1="825" x2="1142" y1="644.4219" y2="644.4219"/><text fill="#000000" font-family="sans-serif" font-size="13" lengthAdjust="spacingAndGlyphs" textLength="102" x="837" y="639.4888">Place ASK order</text><line style="stroke: #A80036; stroke-width: 1.0;" x1="820" x2="862" y1="673.6875" y2="673.6875"/><line style="stroke: #A80036; stroke-width: 1.0;" x1="862" x2="862" y1="673.6875" y2="686.6875"/><line style="stroke: #A80036; stroke-width: 1.0;" x1="821" x2="862" y1="686.6875" y2="686.6875"/><polygon fill="#A80036" points="831,682.6875,821,686.6875,831,690.6875,827,686.6875" style="stroke: #A80036; stroke-width: 1.0;"/><text fill="#000000" font-family="sans-serif" font-size="13" lengthAdjust="spacingAndGlyphs" textLength="96" x="827" y="668.6216">Sign ASK order</text><polygon fill="#A80036" points="465,711.6875,455,715.6875,465,719.6875,461,715.6875" style="stroke: #A80036; stroke-width: 1.0;"/><line style="stroke: #A80036; stroke-width: 1.0;" x1="459" x2="819" y1="715.6875" y2="715.6875"/><text fill="#000000" font-family="sans-serif" font-size="13" lengthAdjust="spacingAndGlyphs" textLength="132" x="471" y="710.7544">Announce ASK order</text><rect fill="#EEEEEE" filter="url(#f1dhuri47dnb7f)" height="3" style="stroke: #EEEEEE; stroke-width: 1.0;" width="1176" x="3" y="744.3867"/><line style="stroke: #000000; stroke-width: 1.0;" x1="3" x2="1179" y1="744.3867" y2="744.3867"/><line style="stroke: #000000; stroke-width: 1.0;" x1="3" x2="1179" y1="747.3867" y2="747.3867"/><rect fill="#EEEEEE" filter="url(#f1dhuri47dnb7f)" height="23.1328" style="stroke: #000000; stroke-width: 2.0;" width="185" x="498.5" y="733.8203"/><text fill="#000000" font-family="sans-serif" font-size="13" font-weight="bold" lengthAdjust="spacingAndGlyphs" textLength="166" x="504.5" y="749.8872">Buyer watches market</text><polygon fill="#A80036" points="257,788.9531,267,792.9531,257,796.9531,261,792.9531" style="stroke: #A80036; stroke-width: 1.0;"/><line style="stroke: #A80036; stroke-width: 1.0;" x1="82" x2="263" y1="792.9531" y2="792.9531"/><text fill="#000000" font-family="sans-serif" font-size="13" lengthAdjust="spacingAndGlyphs" textLength="163" x="89" y="788.02">Get market prices for slot</text><polygon fill="#FBFB77" filter="url(#f1dhuri47dnb7f)" points="274,771.9531,274,796.9531,670,796.9531,670,781.9531,660,771.9531,274,771.9531" style="stroke: #A80036; stroke-width: 1.0;"/><line style="stroke: #A80036; stroke-width: 1.0;" x1="660" x2="660" y1="771.9531" y2="781.9531"/><line style="stroke: #A80036; stroke-width: 1.0;" x1="670" x2="660" y1="781.9531" y2="781.9531"/><text fill="#000000" font-family="sans-serif" font-size="13" lengthAdjust="spacingAndGlyphs" textLength="375" x="280" y="789.02">Buyer should monitor prices for separate slot for each task</text><polygon fill="#A80036" points="442,823.0859,452,827.0859,442,831.0859,446,827.0859" style="stroke: #A80036; stroke-width: 1.0;"/><line style="stroke: #A80036; stroke-width: 1.0;" x1="269" x2="448" y1="827.0859" y2="827.0859"/><text fill="#000000" font-family="sans-serif" font-size="13" lengthAdjust="spacingAndGlyphs" textLength="121" x="276" y="822.1528">Get BIDs and ASKs</text><polygon fill="#A80036" points="280,852.2188,270,856.2188,280,860.2188,276,856.2188" style="stroke: #A80036; stroke-width: 1.0;"/><line style="stroke: #A80036; stroke-width: 1.0; stroke-dasharray: 2.0,2.0;" x1="274" x2="453" y1="856.2188" y2="856.2188"/><text fill="#000000" font-family="sans-serif" font-size="13" lengthAdjust="spacingAndGlyphs" textLength="94" x="286" y="851.2856">BIDs and ASKs</text><polygon fill="#A80036" points="93,881.3516,83,885.3516,93,889.3516,89,885.3516" style="stroke: #A80036; stroke-width: 1.0;"/><line style="stroke: #A80036; stroke-width: 1.0; stroke-dasharray: 2.0,2.0;" x1="87" x2="268" y1="885.3516" y2="885.3516"/><text fill="#000000" font-family="sans-serif" font-size="13" lengthAdjust="spacingAndGlyphs" textLength="133" x="99" y="880.4185">Market prices in VOB</text><rect fill="#EEEEEE" filter="url(#f1dhuri47dnb7f)" height="3" style="stroke: #EEEEEE; stroke-width: 1.0;" width="1176" x="3" y="914.0508"/><line style="stroke: #000000; stroke-width: 1.0;" x1="3" x2="1179" y1="914.0508" y2="914.0508"/><line style="stroke: #000000; stroke-width: 1.0;" x1="3" x2="1179" y1="917.0508" y2="917.0508"/><rect fill="#EEEEEE" filter="url(#f1dhuri47dnb7f)" height="23.1328" style="stroke: #000000; stroke-width: 2.0;" width="172" x="505" y="903.4844"/><text fill="#000000" font-family="sans-serif" font-size="13" font-weight="bold" lengthAdjust="spacingAndGlyphs" textLength="153" x="511" y="919.5513">BID order placement</text><polygon fill="#A80036" points="257,953.6172,267,957.6172,257,961.6172,261,957.6172" style="stroke: #A80036; stroke-width: 1.0;"/><line style="stroke: #A80036; stroke-width: 1.0;" x1="82" x2="263" y1="957.6172" y2="957.6172"/><text fill="#000000" font-family="sans-serif" font-size="13" lengthAdjust="spacingAndGlyphs" textLength="98" x="89" y="952.6841">Place BID order</text><line style="stroke: #A80036; stroke-width: 1.0;" x1="269" x2="311" y1="986.8828" y2="986.8828"/><line style="stroke: #A80036; stroke-width: 1.0;" x1="311" x2="311" y1="986.8828" y2="999.8828"/><line style="stroke: #A80036; stroke-width: 1.0;" x1="270" x2="311" y1="999.8828" y2="999.8828"/><polygon fill="#A80036" points="280,995.8828,270,999.8828,280,1003.8828,276,999.8828" style="stroke: #A80036; stroke-width: 1.0;"/><text fill="#000000" font-family="sans-serif" font-size="13" lengthAdjust="spacingAndGlyphs" textLength="92" x="276" y="981.8169">Sign BID order</text><polygon fill="#A80036" points="442,1024.8828,452,1028.8828,442,1032.8828,446,1028.8828" style="stroke: #A80036; stroke-width: 1.0;"/><line style="stroke: #A80036; stroke-width: 1.0;" x1="269" x2="448" y1="1028.8828" y2="1028.8828"/><text fill="#000000" font-family="sans-serif" font-size="13" lengthAdjust="spacingAndGlyphs" textLength="128" x="276" y="1023.9497">Announce BID order</text><polygon fill="#A80036" points="280,1054.0156,270,1058.0156,280,1062.0156,276,1058.0156" style="stroke: #A80036; stroke-width: 1.0;"/><line style="stroke: #A80036; stroke-width: 1.0; stroke-dasharray: 2.0,2.0;" x1="274" x2="453" y1="1058.0156" y2="1058.0156"/><text fill="#000000" font-family="sans-serif" font-size="13" lengthAdjust="spacingAndGlyphs" textLength="161" x="286" y="1053.0825">ASKs matching BID order</text><line style="stroke: #A80036; stroke-width: 1.0;" x1="269" x2="311" y1="1087.2813" y2="1087.2813"/><line style="stroke: #A80036; stroke-width: 1.0;" x1="311" x2="311" y1="1087.2813" y2="1100.2813"/><line style="stroke: #A80036; stroke-width: 1.0;" x1="270" x2="311" y1="1100.2813" y2="1100.2813"/><polygon fill="#A80036" points="280,1096.2813,270,1100.2813,280,1104.2813,276,1100.2813" style="stroke: #A80036; stroke-width: 1.0;"/><text fill="#000000" font-family="sans-serif" font-size="13" lengthAdjust="spacingAndGlyphs" textLength="120" x="276" y="1082.2153">Sign Deal proposal</text><polygon fill="#A80036" points="808,1125.2813,818,1129.2813,808,1133.2813,812,1129.2813" style="stroke: #A80036; stroke-width: 1.0;"/><line style="stroke: #A80036; stroke-width: 1.0;" x1="269" x2="814" y1="1129.2813" y2="1129.2813"/><text fill="#000000" font-family="sans-serif" font-size="13" lengthAdjust="spacingAndGlyphs" textLength="85" x="276" y="1124.3481">Propose Deal</text><line style="stroke: #A80036; stroke-width: 1.0;" x1="820" x2="862" y1="1158.5469" y2="1158.5469"/><line style="stroke: #A80036; stroke-width: 1.0;" x1="862" x2="862" y1="1158.5469" y2="1171.5469"/><line style="stroke: #A80036; stroke-width: 1.0;" x1="821" x2="862" y1="1171.5469" y2="1171.5469"/><polygon fill="#A80036" points="831,1167.5469,821,1171.5469,831,1175.5469,827,1171.5469" style="stroke: #A80036; stroke-width: 1.0;"/><text fill="#000000" font-family="sans-serif" font-size="13" lengthAdjust="spacingAndGlyphs" textLength="136" x="827" y="1153.481">Check Deal proposed</text><polygon fill="#A80036" points="465,1196.5469,455,1200.5469,465,1204.5469,461,1200.5469" style="stroke: #A80036; stroke-width: 1.0;"/><line style="stroke: #A80036; stroke-width: 1.0;" x1="459" x2="819" y1="1200.5469" y2="1200.5469"/><text fill="#000000" font-family="sans-serif" font-size="13" lengthAdjust="spacingAndGlyphs" textLength="69" x="471" y="1195.6138">Check ASK</text><polygon fill="#A80036" points="808,1225.6797,818,1229.6797,808,1233.6797,812,1229.6797" style="stroke: #A80036; stroke-width: 1.0;"/><line style="stroke: #A80036; stroke-width: 1.0; stroke-dasharray: 2.0,2.0;" x1="454" x2="814" y1="1229.6797" y2="1229.6797"/><text fill="#000000" font-family="sans-serif" font-size="13" lengthAdjust="spacingAndGlyphs" textLength="100" x="461" y="1224.7466">ASK was placed</text><polygon fill="#A80036" points="549,1254.8125,539,1258.8125,549,1262.8125,545,1258.8125" style="stroke: #A80036; stroke-width: 1.0;"/><line style="stroke: #A80036; stroke-width: 1.0;" x1="543" x2="819" y1="1258.8125" y2="1258.8125"/><text fill="#000000" font-family="sans-serif" font-size="13" lengthAdjust="spacingAndGlyphs" textLength="43" x="555" y="1253.8794">Create</text><text fill="#000000" font-family="sans-serif" font-size="13" font-weight="bold" lengthAdjust="spacingAndGlyphs" textLength="61" x="602" y="1253.8794">pending</text><text fill="#000000" font-family="sans-serif" font-size="13" lengthAdjust="spacingAndGlyphs" textLength="29" x="667" y="1253.8794">Deal</text><line style="stroke: #A80036; stroke-width: 1.0;" x1="538" x2="580" y1="1288.0781" y2="1288.0781"/><line style="stroke: #A80036; stroke-width: 1.0;" x1="580" x2="580" y1="1288.0781" y2="1301.0781"/><line style="stroke: #A80036; stroke-width: 1.0;" x1="539" x2="580" y1="1301.0781" y2="1301.0781"/><polygon fill="#A80036" points="549,1297.0781,539,1301.0781,549,1305.0781,545,1301.0781" style="stroke: #A80036; stroke-width: 1.0;"/><text fill="#000000" font-family="sans-serif" font-size="13" lengthAdjust="spacingAndGlyphs" textLength="268" x="545" y="1283.0122">Supplier's SNM are frozen as Deal deposit</text><polygon fill="#A80036" points="280,1346.2109,270,1350.2109,280,1354.2109,276,1350.2109" style="stroke: #A80036; stroke-width: 1.0;"/><line style="stroke: #A80036; stroke-width: 1.0;" x1="274" x2="819" y1="1350.2109" y2="1350.2109"/><text fill="#000000" font-family="sans-serif" font-size="13" lengthAdjust="spacingAndGlyphs" textLength="115" x="286" y="1345.2778">Propose accepted</text><polygon fill="#FBFB77" filter="url(#f1dhuri47dnb7f)" points="8,1314.0781,8,1369.0781,260,1369.0781,260,1324.0781,250,1314.0781,8,1314.0781" style="stroke: #A80036; stroke-width: 1.0;"/><line style="stroke: #A80036; stroke-width: 1.0;" x1="250" x2="250" y1="1314.0781" y2="1324.0781"/><line style="stroke: #A80036; stroke-width: 1.0;" x1="260" x2="250" y1="1324.0781" y2="1324.0781"/><text fill="#000000" font-family="sans-serif" font-size="13" lengthAdjust="spacingAndGlyphs" textLength="231" x="14" y="1331.145">If Hub doesn't accept Deal proposal,</text><text fill="#000000" font-family="sans-serif" font-size="13" lengthAdjust="spacingAndGlyphs" textLength="162" x="14" y="1346.2778">Client will select next ASK</text><text fill="#000000" font-family="sans-serif" font-size="13" lengthAdjust="spacingAndGlyphs" textLength="214" x="14" y="1361.4106">and propose Deal to another Hub</text><polygon fill="#A80036" points="280,1395.4766,270,1399.4766,280,1403.4766,276,1399.4766" style="stroke: #A80036; stroke-width: 1.0;"/><line style="stroke: #A80036; stroke-width: 1.0;" x1="274" x2="537" y1="1399.4766" y2="1399.4766"/><text fill="#000000" font-family="sans-serif" font-size="13" lengthAdjust="spacingAndGlyphs" textLength="27" x="286" y="1394.5435">New</text><text fill="#000000" font-family="sans-serif" font-size="13" font-weight="bold" lengthAdjust="spacingAndGlyphs" textLength="61" x="317" y="1394.5435">pending</text><text fill="#000000" font-family="sans-serif" font-size="13" lengthAdjust="spacingAndGlyphs" textLength="29" x="382" y="1394.5435">Deal</text><polygon fill="#A80036" points="521,1424.6094,531,1428.6094,521,1432.6094,525,1428.6094" style="stroke: #A80036; stroke-width: 1.0;"/><line style="stroke: #A80036; stroke-width: 1.0;" x1="269" x2="527" y1="1428.6094" y2="1428.6094"/><text fill="#000000" font-family="sans-serif" font-size="13" lengthAdjust="spacingAndGlyphs" textLength="86" x="276" y="1423.6763">Approve Deal</text><line style="stroke: #A80036; stroke-width: 1.0;" x1="543" x2="585" y1="1457.875" y2="1457.875"/><line style="stroke: #A80036; stroke-width: 1.0;" x1="585" x2="585" y1="1457.875" y2="1470.875"/><line style="stroke: #A80036; stroke-width: 1.0;" x1="544" x2="585" y1="1470.875" y2="1470.875"/><polygon fill="#A80036" points="554,1466.875,544,1470.875,554,1474.875,550,1470.875" style="stroke: #A80036; stroke-width: 1.0;"/><text fill="#000000" font-family="sans-serif" font-size="13" lengthAdjust="spacingAndGlyphs" textLength="204" x="550" y="1452.8091">Buyer's SNM are frozen for Deal</text><polygon fill="#A80036" points="808,1495.875,818,1499.875,808,1503.875,812,1499.875" style="stroke: #A80036; stroke-width: 1.0;"/><line style="stroke: #A80036; stroke-width: 1.0;" x1="543" x2="814" y1="1499.875" y2="1499.875"/><text fill="#000000" font-family="sans-serif" font-size="13" lengthAdjust="spacingAndGlyphs" textLength="43" x="550" y="1494.9419">Deal is</text><text fill="#000000" font-family="sans-serif" font-size="13" font-weight="bold" lengthAdjust="spacingAndGlyphs" textLength="71" x="597" y="1494.9419">approved</text><polygon fill="#A80036" points="1131,1525.0078,1141,1529.0078,1131,1533.0078,1135,1529.0078" style="stroke: #A80036; stroke-width: 1.0;"/><line style="stroke: #A80036; stroke-width: 1.0;" x1="820" x2="1137" y1="1529.0078" y2="1529.0078"/><text fill="#000000" font-family="sans-serif" font-size="13" lengthAdjust="spacingAndGlyphs" textLength="107" x="827" y="1524.0747">Deal is approved</text><polygon fill="#A80036" points="831,1554.1406,821,1558.1406,831,1562.1406,827,1558.1406" style="stroke: #A80036; stroke-width: 1.0;"/><line style="stroke: #A80036; stroke-width: 1.0;" x1="825" x2="1142" y1="1558.1406" y2="1558.1406"/><text fill="#000000" font-family="sans-serif" font-size="13" lengthAdjust="spacingAndGlyphs" textLength="111" x="837" y="1553.2075">Cancel ASK order</text><polygon fill="#A80036" points="465,1583.2734,455,1587.2734,465,1591.2734,461,1587.2734" style="stroke: #A80036; stroke-width: 1.0;"/><line style="stroke: #A80036; stroke-width: 1.0;" x1="459" x2="819" y1="1587.2734" y2="1587.2734"/><text fill="#000000" font-family="sans-serif" font-size="13" lengthAdjust="spacingAndGlyphs" textLength="111" x="471" y="1582.3403">Cancel ASK order</text><polygon fill="#A80036" points="280,1612.4063,270,1616.4063,280,1620.4063,276,1616.4063" style="stroke: #A80036; stroke-width: 1.0;"/><line style="stroke: #A80036; stroke-width: 1.0;" x1="274" x2="532" y1="1616.4063" y2="1616.4063"/><text fill="#000000" font-family="sans-serif" font-size="13" lengthAdjust="spacingAndGlyphs" textLength="43" x="286" y="1611.4731">Deal is</text><text fill="#000000" font-family="sans-serif" font-size="13" font-weight="bold" lengthAdjust="spacingAndGlyphs" textLength="71" x="333" y="1611.4731">approved</text><polygon fill="#A80036" points="442,1641.5391,452,1645.5391,442,1649.5391,446,1645.5391" style="stroke: #A80036; stroke-width: 1.0;"/><line style="stroke: #A80036; stroke-width: 1.0;" x1="269" x2="448" y1="1645.5391" y2="1645.5391"/><text fill="#000000" font-family="sans-serif" font-size="13" lengthAdjust="spacingAndGlyphs" textLength="107" x="276" y="1640.606">Cancel BID order</text><polygon fill="#A80036" points="93,1670.6719,83,1674.6719,93,1678.6719,89,1674.6719" style="stroke: #A80036; stroke-width: 1.0;"/><line style="stroke: #A80036; stroke-width: 1.0;" x1="87" x2="268" y1="1674.6719" y2="1674.6719"/><text fill="#000000" font-family="sans-serif" font-size="13" lengthAdjust="spacingAndGlyphs" textLength="123" x="99" y="1669.7388">BID order executed</text><rect fill="#EEEEEE" filter="url(#f1dhuri47dnb7f)" height="3" style="stroke: #EEEEEE; stroke-width: 1.0;" width="1176" x="3" y="1703.3711"/><line style="stroke: #000000; stroke-width: 1.0;" x1="3" x2="1179" y1="1703.3711" y2="1703.3711"/><line style="stroke: #000000; stroke-width: 1.0;" x1="3" x2="1179" y1="1706.3711" y2="1706.3711"/><rect fill="#EEEEEE" filter="url(#f1dhuri47dnb7f)" height="23.1328" style="stroke: #000000; stroke-width: 2.0;" width="159" x="511.5" y="1692.8047"/><text fill="#000000" font-family="sans-serif" font-size="13" font-weight="bold" lengthAdjust="spacingAndGlyphs" textLength="140" x="517.5" y="1708.8716">Start task from CLI</text><polygon fill="#A80036" points="257,1742.9375,267,1746.9375,257,1750.9375,261,1746.9375" style="stroke: #A80036; stroke-width: 1.0;"/><line style="stroke: #A80036; stroke-width: 1.0;" x1="82" x2="263" y1="1746.9375" y2="1746.9375"/><text fill="#000000" font-family="sans-serif" font-size="13" lengthAdjust="spacingAndGlyphs" textLength="63" x="89" y="1742.0044">Start task</text><polygon fill="#A80036" points="521,1772.0703,531,1776.0703,521,1780.0703,525,1776.0703" style="stroke: #A80036; stroke-width: 1.0;"/><line style="stroke: #A80036; stroke-width: 1.0;" x1="269" x2="527" y1="1776.0703" y2="1776.0703"/><text fill="#000000" font-family="sans-serif" font-size="13" lengthAdjust="spacingAndGlyphs" textLength="111" x="276" y="1771.1372">Find Deal for task</text><polygon fill="#A80036" points="280,1801.2031,270,1805.2031,280,1809.2031,276,1805.2031" style="stroke: #A80036; stroke-width: 1.0;"/><line style="stroke: #A80036; stroke-width: 1.0; stroke-dasharray: 2.0,2.0;" x1="274" x2="532" y1="1805.2031" y2="1805.2031"/><text fill="#000000" font-family="sans-serif" font-size="13" lengthAdjust="spacingAndGlyphs" textLength="161" x="286" y="1800.27">Deal found, Hub is known</text><polygon fill="#A80036" points="808,1830.3359,818,1834.3359,808,1838.3359,812,1834.3359" style="stroke: #A80036; stroke-width: 1.0;"/><line style="stroke: #A80036; stroke-width: 1.0;" x1="269" x2="814" y1="1834.3359" y2="1834.3359"/><text fill="#000000" font-family="sans-serif" font-size="13" lengthAdjust="spacingAndGlyphs" textLength="63" x="276" y="1829.4028">Start task</text><polygon fill="#A80036" points="554,1859.4688,544,1863.4688,554,1867.4688,550,1863.4688" style="stroke: #A80036; stroke-width: 1.0;"/><line style="stroke: #A80036; stroke-width: 1.0;" x1="548" x2="819" y1="1863.4688" y2="1863.4688"/><text fill="#000000" font-family="sans-serif" font-size="13" lengthAdjust="spacingAndGlyphs" textLength="96" x="560" y="1858.5356">Check contract</text><polygon fill="#A80036" points="808,1888.6016,818,1892.6016,808,1896.6016,812,1892.6016" style="stroke: #A80036; stroke-width: 1.0;"/><line style="stroke: #A80036; stroke-width: 1.0; stroke-dasharray: 2.0,2.0;" x1="543" x2="814" y1="1892.6016" y2="1892.6016"/><text fill="#000000" font-family="sans-serif" font-size="13" lengthAdjust="spacingAndGlyphs" textLength="74" x="550" y="1887.6685">Contract ok</text><polygon fill="#A80036" points="988,1917.7344,998,1921.7344,988,1925.7344,992,1921.7344" style="stroke: #A80036; stroke-width: 1.0;"/><line style="stroke: #A80036; stroke-width: 1.0;" x1="825" x2="994" y1="1921.7344" y2="1921.7344"/><text fill="#000000" font-family="sans-serif" font-size="13" lengthAdjust="spacingAndGlyphs" textLength="63" x="832" y="1916.8013">Start task</text><polygon fill="#A80036" points="836,1946.8672,826,1950.8672,836,1954.8672,832,1950.8672" style="stroke: #A80036; stroke-width: 1.0;"/><line style="stroke: #A80036; stroke-width: 1.0; stroke-dasharray: 2.0,2.0;" x1="830" x2="999" y1="1950.8672" y2="1950.8672"/><text fill="#000000" font-family="sans-serif" font-size="13" lengthAdjust="spacingAndGlyphs" textLength="79" x="842" y="1945.9341">Task started</text><polygon fill="#A80036" points="280,1976,270,1980,280,1984,276,1980" style="stroke: #A80036; stroke-width: 1.0;"/><line style="stroke: #A80036; stroke-width: 1.0;" x1="274" x2="814" y1="1980" y2="1980"/><text fill="#000000" font-family="sans-serif" font-size="13" lengthAdjust="spacingAndGlyphs" textLength="79" x="286" y="1975.0669">Task started</text><rect fill="#EEEEEE" filter="url(#f1dhuri47dnb7f)" height="3" style="stroke: #EEEEEE; stroke-width: 1.0;" width="1176" x="3" y="2008.6992"/><line style="stroke: #000000; stroke-width: 1.0;" x1="3" x2="1179" y1="2008.6992" y2="2008.6992"/><line style="stroke: #000000; stroke-width: 1.0;" x1="3" x2="1179" y1="2011.6992" y2="2011.6992"/><rect fill="#EEEEEE" filter="url(#f1dhuri47dnb7f)" height="23.1328" style="stroke: #000000; stroke-width: 2.0;" width="148" x="517" y="1998.1328"/><text fill="#000000" font-family="sans-serif" font-size="13" font-weight="bold" lengthAdjust="spacingAndGlyphs" textLength="129" x="523" y="2014.1997">Get logs from CLI</text><polygon fill="#A80036" points="257,2048.2656,267,2052.2656,257,2056.2656,261,2052.2656" style="stroke: #A80036; stroke-width: 1.0;"/><line style="stroke: #A80036; stroke-width: 1.0;" x1="82" x2="263" y1="2052.2656" y2="2052.2656"/><text fill="#000000" font-family="sans-serif" font-size="13" lengthAdjust="spacingAndGlyphs" textLength="53" x="89" y="2047.3325">Get logs</text><polygon fill="#A80036" points="521,2077.3984,531,2081.3984,521,2085.3984,525,2081.3984" style="stroke: #A80036; stroke-width: 1.0;"/><line style="stroke: #A80036; stroke-width: 1.0;" x1="269" x2="527" y1="2081.3984" y2="2081.3984"/><text fill="#000000" font-family="sans-serif" font-size="13" lengthAdjust="spacingAndGlyphs" textLength="111" x="276" y="2076.4653">Find Deal for task</text><polygon fill="#A80036" points="280,2106.5313,270,2110.5313,280,2114.5313,276,2110.5313" style="stroke: #A80036; stroke-width: 1.0;"/><line style="stroke: #A80036; stroke-width: 1.0; stroke-dasharray: 2.0,2.0;" x1="274" x2="532" y1="2110.5313" y2="2110.5313"/><text fill="#000000" font-family="sans-serif" font-size="13" lengthAdjust="spacingAndGlyphs" textLength="161" x="286" y="2105.5981">Deal found, Hub is known</text><polygon fill="#A80036" points="803,2135.6641,813,2139.6641,803,2143.6641,807,2139.6641" style="stroke: #A80036; stroke-width: 1.0;"/><line style="stroke: #A80036; stroke-width: 1.0;" x1="269" x2="809" y1="2139.6641" y2="2139.6641"/><text fill="#000000" font-family="sans-serif" font-size="13" lengthAdjust="spacingAndGlyphs" textLength="53" x="276" y="2134.731">Get logs</text><polygon fill="#A80036" points="554,2164.7969,544,2168.7969,554,2172.7969,550,2168.7969" style="stroke: #A80036; stroke-width: 1.0;"/><line style="stroke: #A80036; stroke-width: 1.0;" x1="548" x2="814" y1="2168.7969" y2="2168.7969"/><text fill="#000000" font-family="sans-serif" font-size="13" lengthAdjust="spacingAndGlyphs" textLength="96" x="560" y="2163.8638">Check contract</text><polygon fill="#A80036" points="803,2193.9297,813,2197.9297,803,2201.9297,807,2197.9297" style="stroke: #A80036; stroke-width: 1.0;"/><line style="stroke: #A80036; stroke-width: 1.0; stroke-dasharray: 2.0,2.0;" x1="543" x2="809" y1="2197.9297" y2="2197.9297"/><text fill="#000000" font-family="sans-serif" font-size="13" lengthAdjust="spacingAndGlyphs" textLength="74" x="550" y="2192.9966">Contract ok</text><polygon fill="#A80036" points="988,2223.0625,998,2227.0625,988,2231.0625,992,2227.0625" style="stroke: #A80036; stroke-width: 1.0;"/><line style="stroke: #A80036; stroke-width: 1.0;" x1="825" x2="994" y1="2227.0625" y2="2227.0625"/><text fill="#000000" font-family="sans-serif" font-size="13" lengthAdjust="spacingAndGlyphs" textLength="53" x="832" y="2222.1294">Get logs</text><polygon fill="#A80036" points="836,2252.1953,826,2256.1953,836,2260.1953,832,2256.1953" style="stroke: #A80036; stroke-width: 1.0;"/><line style="stroke: #A80036; stroke-width: 1.0; stroke-dasharray: 2.0,2.0;" x1="830" x2="999" y1="2256.1953" y2="2256.1953"/><text fill="#000000" font-family="sans-serif" font-size="13" lengthAdjust="spacingAndGlyphs" textLength="30" x="842" y="2251.2622">Logs</text><polygon fill="#A80036" points="280,2281.3281,270,2285.3281,280,2289.3281,276,2285.3281" style="stroke: #A80036; stroke-width: 1.0;"/><line style="stroke: #A80036; stroke-width: 1.0; stroke-dasharray: 2.0,2.0;" x1="274" x2="814" y1="2285.3281" y2="2285.3281"/><text fill="#000000" font-family="sans-serif" font-size="13" lengthAdjust="spacingAndGlyphs" textLength="30" x="286" y="2280.395">Logs</text><polygon fill="#A80036" points="93,2310.4609,83,2314.4609,93,2318.4609,89,2314.4609" style="stroke: #A80036; stroke-width: 1.0;"/><line style="stroke: #A80036; stroke-width: 1.0; stroke-dasharray: 2.0,2.0;" x1="87" x2="268" y1="2314.4609" y2="2314.4609"/><text fill="#000000" font-family="sans-serif" font-size="13" lengthAdjust="spacingAndGlyphs" textLength="30" x="99" y="2309.5278">Logs</text><rect fill="#EEEEEE" filter="url(#f1dhuri47dnb7f)" height="3" style="stroke: #EEEEEE; stroke-width: 1.0;" width="1176" x="3" y="2343.1602"/><line style="stroke: #000000; stroke-width: 1.0;" x1="3" x2="1179" y1="2343.1602" y2="2343.1602"/><line style="stroke: #000000; stroke-width: 1.0;" x1="3" x2="1179" y1="2346.1602" y2="2346.1602"/><rect fill="#EEEEEE" filter="url(#f1dhuri47dnb7f)" height="23.1328" style="stroke: #000000; stroke-width: 2.0;" width="133" x="524.5" y="2332.5938"/><text fill="#000000" font-family="sans-serif" font-size="13" font-weight="bold" lengthAdjust="spacingAndGlyphs" textLength="114" x="530.5" y="2348.6606">End of contract</text><polygon fill="#A80036" points="993,2387.7266,1003,2391.7266,993,2395.7266,997,2391.7266" style="stroke: #A80036; stroke-width: 1.0;"/><line style="stroke: #A80036; stroke-width: 1.0;" x1="820" x2="999" y1="2391.7266" y2="2391.7266"/><text fill="#000000" font-family="sans-serif" font-size="13" lengthAdjust="spacingAndGlyphs" textLength="61" x="827" y="2386.7935">Stop task</text><polygon fill="#FBFB77" filter="url(#f1dhuri47dnb7f)" points="617,2370.7266,617,2395.7266,806,2395.7266,806,2380.7266,796,2370.7266,617,2370.7266" style="stroke: #A80036; stroke-width: 1.0;"/><line style="stroke: #A80036; stroke-width: 1.0;" x1="796" x2="796" y1="2370.7266" y2="2380.7266"/><line style="stroke: #A80036; stroke-width: 1.0;" x1="806" x2="796" y1="2380.7266" y2="2380.7266"/><text fill="#000000" font-family="sans-serif" font-size="13" lengthAdjust="spacingAndGlyphs" textLength="168" x="623" y="2387.7935">When Deal time is finished</text><polygon fill="#A80036" points="831,2421.8594,821,2425.8594,831,2429.8594,827,2425.8594" style="stroke: #A80036; stroke-width: 1.0;"/><line style="stroke: #A80036; stroke-width: 1.0; stroke-dasharray: 2.0,2.0;" x1="825" x2="1004" y1="2425.8594" y2="2425.8594"/><text fill="#000000" font-family="sans-serif" font-size="13" lengthAdjust="spacingAndGlyphs" textLength="85" x="837" y="2420.9263">Task stopped</text><polygon fill="#A80036" points="280,2450.9922,270,2454.9922,280,2458.9922,276,2454.9922" style="stroke: #A80036; stroke-width: 1.0;"/><line style="stroke: #A80036; stroke-width: 1.0;" x1="274" x2="819" y1="2454.9922" y2="2454.9922"/><text fill="#000000" font-family="sans-serif" font-size="13" lengthAdjust="spacingAndGlyphs" textLength="85" x="286" y="2450.0591">Task stopped</text><polygon fill="#A80036" points="554,2480.125,544,2484.125,554,2488.125,550,2484.125" style="stroke: #A80036; stroke-width: 1.0;"/><line style="stroke: #A80036; stroke-width: 1.0;" x1="548" x2="819" y1="2484.125" y2="2484.125"/><text fill="#000000" font-family="sans-serif" font-size="13" lengthAdjust="spacingAndGlyphs" textLength="68" x="560" y="2479.1919">Close Deal</text><line style="stroke: #A80036; stroke-width: 1.0;" x1="543" x2="585" y1="2518.3906" y2="2518.3906"/><line style="stroke: #A80036; stroke-width: 1.0;" x1="585" x2="585" y1="2518.3906" y2="2531.3906"/><line style="stroke: #A80036; stroke-width: 1.0;" x1="538" x2="585" y1="2531.3906" y2="2531.3906"/><polygon fill="#A80036" points="548,2527.3906,538,2531.3906,548,2535.3906,544,2531.3906" style="stroke: #A80036; stroke-width: 1.0;"/><text fill="#000000" font-family="sans-serif" font-size="13" lengthAdjust="spacingAndGlyphs" textLength="221" x="550" y="2513.3247">Deal SNM are transferred to Buyer</text><polygon fill="#A80036" points="1131,2551.3906,1141,2555.3906,1131,2559.3906,1135,2555.3906" style="stroke: #A80036; stroke-width: 1.0;"/><line style="stroke: #A80036; stroke-width: 1.0;" x1="820" x2="1137" y1="2555.3906" y2="2555.3906"/><text fill="#000000" font-family="sans-serif" font-size="13" lengthAdjust="spacingAndGlyphs" textLength="82" x="827" y="2550.4575">Deal finished</text><polygon fill="#A80036" points="831,2580.5234,821,2584.5234,831,2588.5234,827,2584.5234" style="stroke: #A80036; stroke-width: 1.0;"/><line style="stroke: #A80036; stroke-width: 1.0;" x1="825" x2="1142" y1="2584.5234" y2="2584.5234"/><text fill="#000000" font-family="sans-serif" font-size="13" lengthAdjust="spacingAndGlyphs" textLength="132" x="837" y="2579.5903">Announce ASK order</text><polygon fill="#A80036" points="465,2609.6563,455,2613.6563,465,2617.6563,461,2613.6563" style="stroke: #A80036; stroke-width: 1.0;"/><line style="stroke: #A80036; stroke-width: 1.0;" x1="459" x2="819" y1="2613.6563" y2="2613.6563"/><text fill="#000000" font-family="sans-serif" font-size="13" lengthAdjust="spacingAndGlyphs" textLength="132" x="471" y="2608.7231">Announce ASK order</text><!--
@startuml
‘Sequence diagram for SONM 0.3
‘ http://www.plantuml.com/plantuml/uml/


actor Buyer
'participant Wallet
participant Client
participant Marketplace
participant ETH
participant Hub
participant Worker
actor Supplier

== Hub start ==
Supplier -> Hub: Start hub node
Supplier -> Worker: Start worker node
Worker -> Hub: Connect
note left
  Hub reports available resources
  and capabilities
end note
Hub -> Hub: Check Worker (by address)
Supplier -> Hub: Set worker properties

== Supplier watches market ==
Supplier -> Hub: Get market prices for selected slot
Hub -> Marketplace: Get BIDs and ASKs for slot
Marketplace - -> Hub: BIDs and ASKs
Hub - -> Supplier: Market prices for slot

== ASK order placement ==
Supplier -> Hub: View available resources
Hub - -> Supplier: Resources info
Supplier -> Hub: Setup resource properties
note left: Associate properties with resource metadata
Supplier -> Hub: Place ASK order
Hub -> Hub: Sign ASK order
Hub -> Marketplace: Announce ASK order

== Buyer watches market ==
Buyer -> Client: Get market prices for slot 
note right: Buyer should monitor prices for separate slot for each task
Client -> Marketplace: Get BIDs and ASKs
Marketplace - -> Client: BIDs and ASKs
Client - -> Buyer: Market prices in VOB

== BID order placement ==
Buyer -> Client: Place BID order
Client -> Client: Sign BID order
Client -> Marketplace: Announce BID order
Marketplace - -> Client: ASKs matching BID order
Client -> Client: Sign Deal proposal
Client -> Hub: Propose Deal
Hub -> Hub: Check Deal proposed
Hub -> Marketplace: Check ASK
Marketplace - -> Hub: ASK was placed
Hub -> ETH: Create **pending** Deal
ETH -> ETH: Supplier's SNM are frozen as Deal deposit
Hub -> Client: Propose accepted
note left
  If Hub doesn't accept Deal proposal,
  Client will select next ASK
  and propose Deal to another Hub
end note
ETH -> Client: New **pending** Deal
Client -> ETH: Approve Deal
Activate ETH
ETH -> ETH: Buyer's SNM are frozen for Deal
ETH -> Hub: Deal is **approved**
Hub -> Supplier: Deal is approved
Supplier -> Hub: Cancel ASK order
Hub -> Marketplace: Cancel ASK order
ETH -> Client: Deal is **approved**
Client -> Marketplace: Cancel BID order
Client -> Buyer: BID order executed

== Start task from CLI ==
Buyer -> Client: Start task
Client -> ETH: Find Deal for task
ETH - -> Client: Deal found, Hub is known
Client -> Hub: Start task
Hub -> ETH: Check contract
ETH - -> Hub: Contract ok
Hub -> Worker: Start task
Activate Worker
Activate Hub
Worker - -> Hub: Task started
Hub -> Client: Task started

== Get logs from CLI ==
Buyer -> Client: Get logs
Client -> ETH: Find Deal for task
ETH - -> Client: Deal found, Hub is known
Client -> Hub: Get logs
Hub -> ETH: Check contract
ETH - -> Hub: Contract ok
Hub -> Worker: Get logs
Worker - -> Hub: Logs
Hub - -> Client: Logs
Client - -> Buyer: Logs

== End of contract ==
Hub -> Worker: Stop task
Note left: When Deal time is finished
Deactivate Worker
Deactivate Hub
Worker - -> Hub: Task stopped
Hub -> Client: Task stopped
Hub -> ETH: Close Deal
ETH -> ETH: Deal SNM are transferred to Buyer
Deactivate ETH
Hub -> Supplier: Deal finished
Supplier -> Hub: Announce ASK order
Hub -> Marketplace: Announce ASK order
@enduml

PlantUML version 1.2017.18beta10(Unknown compile time)
(GPL source distribution)
Java Runtime: Java(TM) SE Runtime Environment
JVM: Java HotSpot(TM) 64-Bit Server VM
Java Version: 1.7.0_25-b15
Operating System: Linux
Default Encoding: UTF-8
Language: en
Country: US
--></g></svg>